<?xml version="1.0" encoding="utf-8"?>
<!-- Generator: Adobe Illustrator 18.0.0, SVG Export Plug-In . SVG Version: 6.00 Build 0)  -->
<!DOCTYPE svg PUBLIC "-//W3C//DTD SVG 1.0//EN" "http://www.w3.org/TR/2001/REC-SVG-20010904/DTD/svg10.dtd">
<svg version="1.0" id="Camada_1" xmlns="http://www.w3.org/2000/svg" xmlns:xlink="http://www.w3.org/1999/xlink" x="0px" y="0px"
	 viewBox="0 0 363.6 89.9" enable-background="new 0 0 363.6 89.9" xml:space="preserve">
<g>
	<path fill="#1AA69B" d="M350.9,62.3c0.7-2.8,1.5-5.6-1.4-8c-0.6-0.5-1-1.2-1.5-1.8c-3.6-4.7-8.1-8.3-13.7-10.2
		c-9.9-3.4-20,0.5-24.5,9.3c-2.4,4.7-2.9,9.7-2.5,14.8c0.1,1.2-0.1,1.9-1.2,2.5c-2.6,1.3-5.2,2.9-8,3.9c-4.3,1.6-7.6-0.4-8.1-5
		c-0.4-3.4,0.1-6.9-0.1-10.4c-0.3-4.5,1-8.2,4-11.4c0.9-0.9,1.6-1.5,2.9-1.4c4.6,0.1,9.1,0.1,13.7,0c2.2,0,3.3-1.3,3.4-3.6
		c0-2.5-0.6-3.2-3.1-3.3c-3.5-0.1-7-0.3-10.9-0.4c0.6-1,1-1.6,1.3-2.3c1.7-3.6,3.7-7.1,5-10.8c1.6-4.5,1.2-9-1.1-13.2
		c-2.6-4.7-7.4-5.5-11.1-1.6c-2,2.1-3.9,4.4-5,7c-2.4,5.9-4.3,11.9-6.2,18c-0.5,1.6-1.1,2.1-2.8,2.1c-3,0-5.9,0.2-8.9,0.4
		c-1.3,0.1-1.6,0.9-1.5,2.1c0.1,1.6,1,2.5,2.6,2.7c2.9,0.5,5.8,1,8.6,1.5c0.1,0.4,0.2,0.6,0.2,0.7c0,7,0,14,0,21
		c0,0.5-0.1,1.1-0.4,1.3c-3.6,2.3-7.2,4.6-10.8,6.8c-1.5,0.9-2.8,0.1-3.1-1.5c-0.4-2-0.8-4-0.6-6c0.5-5.2,1.5-10.3,2.1-15.5
		c0.2-1.6,0.4-3.3,0.1-5c-0.4-3.1-2.5-4.7-5.4-4.3c-2.6,0.3-4.5,1.6-5.7,3.9c-2,4-4,8-5.9,12.1c-0.5,1-1,2-1.6,3
		c-0.2-0.1-0.5-0.2-0.7-0.3c0.2-1.5,0.3-2.9,0.5-4.4c0.4-3.4,0.9-6.7,1-10.1c0.1-1.8-0.6-3.5-2.6-4c-2-0.5-4-0.1-5.2,1.7
		c-0.7,1-1.3,2.3-1.5,3.5c-1,5.9-1.8,11.9-2.7,17.8c-0.1,0.7-0.2,1.6-0.6,2c-4.8,3.7-9.8,6.9-16.1,7.4c-2.8,0.2-4.2-0.9-5.4-3.7
		c0-0.1,0.1-0.1,0.1-0.1c0.7-0.3,1.5-0.6,2.2-0.9c6.7-2.5,11.8-6.8,14.4-13.5c2.4-6.2-1-12.5-7.4-14c-5.7-1.3-11.4,1.1-15.1,6.6
		c-3.1,4.5-4.6,9.7-5.5,15c-0.6,3.1-0.9,3.7-4.1,4.4c-4.2,1-7.3-1.3-6.9-5.6c0.2-2.5,1-4.9,1.8-7.3c1-3.1,2.5-6,3.4-9.1
		c0.3-1-0.2-2.7-0.9-3.5c-2.7-2.7-7.7-1.5-9.2,2.1c-3.5,8.6-6.9,17.2-10.4,25.8c-0.3,0.7-0.6,1.4-0.9,2.1c-0.2-0.1-0.4-0.1-0.6-0.2
		c0.1-2.8,0.3-5.6,0.4-8.4c0.4-6.3,0.8-12.6,1.1-18.9c0.1-2.4-1-3.8-3.1-3.4c-7,1.2-7.5-0.4-7.6,7.5c-0.1,8.7,0.4,17.4,0.9,26
		c0.1,2.1,0.7,4.3,1.7,6.2c1.6,3.1,5.1,3.7,7.7,1.5c1.5-1.2,2.9-2.7,4-4.3c1.9-2.8,3.6-5.7,5.5-8.8c1,4.2,3.5,6.8,7.7,7.6
		c4,0.7,7.5-0.8,11.1-2.2c3,5.5,7.4,8.4,13.6,8.5c5.3,0,10-1.8,14.5-4.5c0.9-0.5,1.8-1.1,2.8-1.8c0.1,0.5,0.2,0.8,0.3,1
		c0.6,3.4,1.9,5,4.3,5.3c2.5,0.3,3.9-0.7,5.5-3.9c3.2-6.5,6.4-13,9.7-19.4c0.3-0.6,0.7-1.2,1-1.8c0.2,0.1,0.3,0.1,0.5,0.2
		c-0.2,2.2-0.5,4.3-0.7,6.5c-0.4,4.6-0.6,9.3,0.8,13.8c1.3,4.3,3.2,5.3,7.5,4.3c1.2-0.3,2.4-0.7,3.5-1.2c4.4-2.2,8.7-4.4,13.2-6.7
		c0.3,0.5,0.6,1,0.8,1.6c3.3,6.4,7.9,8.1,14.5,5.4c1.3-0.5,2.5-1.1,3.7-1.7c2.4-1.3,4.8-2.6,7.3-3.9c0.5,0.6,0.8,1.2,1.3,1.8
		c1.8,2.4,4,4.2,7,4.8c6.2,1.3,11.2-1,14.9-5.8c5.7-7.5,6.6-15.8,3.6-24.7c-0.2-0.6-0.5-1.3-0.7-1.9c0.2-0.2,0.5-0.4,0.7-0.6
		C341.1,53.7,346,57.9,350.9,62.3z M295.8,18.4c0.6-1.2,1.5-2.8,3-2c0.9,0.5,1.5,2.2,1.5,3.4c0,1.6-0.6,3.3-1.3,4.8
		c-1.7,3.6-3.6,7.1-5.3,10.6c-0.7,1.5-1.7,1.8-3.4,0.9C291.7,30.1,292.9,24,295.8,18.4z M214.9,62.3c0.2-4.1,1.4-7.8,3.6-11
		c0.5-0.8,1.5-1.5,2.4-1.8c1.2-0.3,3.1-0.7,3.8,0c0.9,0.9,1.5,2.7,1.4,4C225.5,57.1,219.4,62.8,214.9,62.3z M329.6,61.6
		c-0.1,3.7-1.2,7.3-3.4,10.4c-1.1,1.5-2.3,2.9-4.4,2.6c-2.2-0.3-3.8-1.5-4.5-3.6c-0.6-1.8-0.8-3.8-1.2-5.7c0.3-4,1.1-7.7,3-11.1
		c0.7-1.2,1.5-2.3,2.5-3.3c2.7-2.6,6.1-2,7.2,1.6C329.7,55.3,329.8,58.5,329.6,61.6z"/>
	<path fill="#ffffff" d="M86.6,34.6c0,12.2,0,24.4,0,36.8c1.5,0,3,0,4.5,0c0,3.3,0,6.3,0,9.5c-6.3,0-12.6,0-19.1,0c0-3,0-6.1,0-9.4
		c1.5,0,2.9,0,4.5,0c0-16.7,0-33.1,0-49.8c-1.4-0.1-2.9-0.2-4.5-0.3c0-3.1,0-6.1,0-9.4c4.6,0,9.2-0.1,13.8,0.1
		c0.5,0,1.2,1.1,1.6,1.8c7.3,14.2,14.6,28.4,21.8,42.7c0.3,0.7,0.7,1.3,1.4,1.9c0-12.2,0-24.3,0-36.7c-1.6-0.1-3-0.1-4.6-0.2
		c0-3.1,0-6.2,0-9.3c6.4,0,12.7,0,19.1,0c0,3.1,0,6.1,0,9.3c-1.5,0.1-3,0.2-4.7,0.3c0,19.8,0,39.4,0,59.3c-3.1,0-6,0.1-8.8-0.1
		c-0.6,0-1.3-0.9-1.7-1.6C102.9,65.6,95.9,51.8,88.8,38c-0.6-1.2-1.2-2.3-1.8-3.5C86.9,34.6,86.7,34.6,86.6,34.6z"/>
	<path fill="#ffffff" d="M41.2,12.1c6.4,0,12.7,0,19.1,0c0,3.1,0,6.1,0,9.4c-1.4,0.1-2.9,0.1-4.6,0.2c0,0.9-0.1,1.8-0.1,2.6
		c0,15.6,0,31.3-0.1,46.9c0,1.1-0.6,2.5-1.4,3.4c-2,2.3-4,5-6.6,6.2C45.2,81.8,41.9,81,39,81c-4.3,0-8.5,0.1-12.8-0.1
		c-1,0-2-0.6-2.8-1.2c-5.4-3.8-7.1-8.8-6.8-15.6c0.6-13.2,0.2-26.5,0.2-39.7c0-0.9,0-1.7,0-2.8c-1.7-0.1-3.1-0.2-4.7-0.2
		c0-3.1,0-6.1,0-9.3c6.3,0,12.7,0,19.1,0c0,3,0,6,0,9.3c-1.4,0.1-2.9,0.2-4.5,0.2c0,16.6,0,33,0,49.6c6.4,0,12.6,0,19.1,0
		c0.1-0.8,0.2-1.7,0.2-2.5c0-14.8,0-29.5,0-44.3c0-3.3,0.2-2.9-2.9-2.9c-0.6,0-1.1-0.1-1.8-0.1C41.2,18.3,41.2,15.3,41.2,12.1z"/>
	<path fill="#ffffff" d="M149.2,71.4c1.5,0,3,0,4.5,0c0,3.2,0,6.2,0,9.4c-6.3,0-12.6,0-19.1,0c0-3,0-6.1,0-9.3
		c1.5-0.1,2.9-0.1,4.5-0.2c0-16.5,0-33,0-49.7c-1.5-0.1-3-0.2-4.5-0.2c0-3.1,0-6.2,0-9.3c6.4,0,12.7,0,19.1,0c0,3,0,6,0,9.3
		c-1.5,0.1-2.9,0.2-4.5,0.3C149.2,38.3,149.2,54.7,149.2,71.4z"/>
</g>
</svg>
